# xmcd
#
# Track frame offsets:
#	150
#	140793
#	152172
#	164149
#	175040
#	191135
#	205289
#	218391
#	233013
#	247443
#	264618
#	282136
#	302814
#
# Disc length: 4205 seconds
#
# Revision: 1
# Processed by: cddbd v1.5.1PL2 Copyright (c) Steve Scherf et al.
# Submitted via: audiograbber 1.83.01
#
DISCID=c8106b0d
DTITLE=Squirrel Nut Zippers - Hot
DYEAR=1900
DGENRE=Western Swing-Country
TTITLE0=Piste de données
TTITLE1=Got My Own Thing Now
TTITLE2=Put A Lid On It
TTITLE3=Memphis Exorcism
TTITLE4=Twilight
TTITLE5=It Ain't You
TTITLE6=Prince Nez
TTITLE7=Hell
TTITLE8=Meant To Be
TTITLE9=Bad Businessman
TTITLE10=Flight Of The Passing Fancy
TTITLE11=Blue Angel
TTITLE12=The Interlocutor
EXTD=
EXTT0=
EXTT1=
EXTT2=
EXTT3=
EXTT4=
EXTT5=
EXTT6=
EXTT7=
EXTT8=
EXTT9=
EXTT10=
EXTT11=
EXTT12=
PLAYORDER=
